<?xml version="1.0" encoding="UTF-8"?>
<!DOCTYPE svg PUBLIC "-//W3C//DTD SVG 1.1//EN" "http://www.w3.org/Graphics/SVG/1.1/DTD/svg11.dtd">
<svg xmlns="http://www.w3.org/2000/svg" version="1.1" width="512px" height="512px" style="shape-rendering:geometricPrecision; text-rendering:geometricPrecision; image-rendering:optimizeQuality; fill-rule:evenodd; clip-rule:evenodd" xmlns:xlink="http://www.w3.org/1999/xlink">
<g><path style="opacity:0.993" fill="#5f55ae" d="M 99.5,-0.5 C 103.5,-0.5 107.5,-0.5 111.5,-0.5C 115.479,1.31481 118.312,4.31481 120,8.5C 120.5,22.496 120.667,36.496 120.5,50.5C 110.5,50.5 100.5,50.5 90.5,50.5C 90.3334,36.496 90.5001,22.496 91,8.5C 92.6878,4.31481 95.5212,1.31481 99.5,-0.5 Z"/></g>
<g><path style="opacity:0.993" fill="#5f55ae" d="M 159.5,-0.5 C 163.5,-0.5 167.5,-0.5 171.5,-0.5C 175.479,1.31481 178.312,4.31481 180,8.5C 180.5,22.496 180.667,36.496 180.5,50.5C 170.5,50.5 160.5,50.5 150.5,50.5C 150.333,36.496 150.5,22.496 151,8.5C 152.688,4.31481 155.521,1.31481 159.5,-0.5 Z"/></g>
<g><path style="opacity:0.993" fill="#5f55ae" d="M 219.5,-0.5 C 223.5,-0.5 227.5,-0.5 231.5,-0.5C 235.479,1.31481 238.312,4.31481 240,8.5C 240.5,22.496 240.667,36.496 240.5,50.5C 230.5,50.5 220.5,50.5 210.5,50.5C 210.333,36.496 210.5,22.496 211,8.5C 212.688,4.31481 215.521,1.31481 219.5,-0.5 Z"/></g>
<g><path style="opacity:0.996" fill="#39316b" d="M 279.5,-0.5 C 283.5,-0.5 287.5,-0.5 291.5,-0.5C 295.479,1.31481 298.312,4.31481 300,8.5C 300.5,22.496 300.667,36.496 300.5,50.5C 290.5,50.5 280.5,50.5 270.5,50.5C 270.333,36.496 270.5,22.496 271,8.5C 272.688,4.31481 275.521,1.31481 279.5,-0.5 Z"/></g>
<g><path style="opacity:0.996" fill="#39316b" d="M 339.5,-0.5 C 343.5,-0.5 347.5,-0.5 351.5,-0.5C 355.479,1.31481 358.312,4.31481 360,8.5C 360.5,22.496 360.667,36.496 360.5,50.5C 350.5,50.5 340.5,50.5 330.5,50.5C 330.333,36.496 330.5,22.496 331,8.5C 332.688,4.31481 335.521,1.31481 339.5,-0.5 Z"/></g>
<g><path style="opacity:0.996" fill="#39316b" d="M 399.5,-0.5 C 403.5,-0.5 407.5,-0.5 411.5,-0.5C 415.479,1.31481 418.312,4.31481 420,8.5C 420.5,22.496 420.667,36.496 420.5,50.5C 410.5,50.5 400.5,50.5 390.5,50.5C 390.333,36.496 390.5,22.496 391,8.5C 392.688,4.31481 395.521,1.31481 399.5,-0.5 Z"/></g>
<g><path style="opacity:1" fill="#adcffe" d="M 90.5,50.5 C 100.5,50.5 110.5,50.5 120.5,50.5C 130.5,50.5 140.5,50.5 150.5,50.5C 160.5,50.5 170.5,50.5 180.5,50.5C 190.5,50.5 200.5,50.5 210.5,50.5C 220.5,50.5 230.5,50.5 240.5,50.5C 245.5,50.5 250.5,50.5 255.5,50.5C 255.5,70.5 255.5,90.5 255.5,110.5C 210.832,110.333 166.165,110.5 121.5,111C 116.056,112.624 112.556,116.124 111,121.5C 110.333,210.5 110.333,299.5 111,388.5C 112.402,394.236 115.902,398.069 121.5,400C 166.165,400.5 210.832,400.667 255.5,400.5C 255.5,420.5 255.5,440.5 255.5,460.5C 250.5,460.5 245.5,460.5 240.5,460.5C 230.5,460.5 220.5,460.5 210.5,460.5C 200.5,460.5 190.5,460.5 180.5,460.5C 170.5,460.5 160.5,460.5 150.5,460.5C 140.5,460.5 130.5,460.5 120.5,460.5C 110.5,460.5 100.5,460.5 90.5,460.5C 80.1613,460.666 69.828,460.5 59.5,460C 55.3333,458.5 52.5,455.667 51,451.5C 50.5002,441.172 50.3335,430.839 50.5,420.5C 50.5,410.5 50.5,400.5 50.5,390.5C 50.5,380.5 50.5,370.5 50.5,360.5C 50.5,350.5 50.5,340.5 50.5,330.5C 50.5,320.5 50.5,310.5 50.5,300.5C 50.5,290.5 50.5,280.5 50.5,270.5C 50.5,260.5 50.5,250.5 50.5,240.5C 50.5,230.5 50.5,220.5 50.5,210.5C 50.5,200.5 50.5,190.5 50.5,180.5C 50.5,170.5 50.5,160.5 50.5,150.5C 50.5,140.5 50.5,130.5 50.5,120.5C 50.5,110.5 50.5,100.5 50.5,90.5C 50.3335,80.1613 50.5002,69.828 51,59.5C 52.5,55.3333 55.3333,52.5 59.5,51C 69.828,50.5002 80.1613,50.3335 90.5,50.5 Z"/></g>
<g><path style="opacity:1" fill="#7c84e7" d="M 255.5,50.5 C 260.5,50.5 265.5,50.5 270.5,50.5C 280.5,50.5 290.5,50.5 300.5,50.5C 310.5,50.5 320.5,50.5 330.5,50.5C 340.5,50.5 350.5,50.5 360.5,50.5C 370.5,50.5 380.5,50.5 390.5,50.5C 400.5,50.5 410.5,50.5 420.5,50.5C 430.839,50.3335 441.172,50.5002 451.5,51C 455.667,52.5 458.5,55.3333 460,59.5C 460.5,69.828 460.666,80.1613 460.5,90.5C 460.5,100.5 460.5,110.5 460.5,120.5C 460.5,130.5 460.5,140.5 460.5,150.5C 460.5,160.5 460.5,170.5 460.5,180.5C 460.5,190.5 460.5,200.5 460.5,210.5C 460.5,220.5 460.5,230.5 460.5,240.5C 460.5,250.5 460.5,260.5 460.5,270.5C 460.5,280.5 460.5,290.5 460.5,300.5C 460.5,310.5 460.5,320.5 460.5,330.5C 460.5,340.5 460.5,350.5 460.5,360.5C 460.5,370.5 460.5,380.5 460.5,390.5C 460.5,400.5 460.5,410.5 460.5,420.5C 460.666,430.839 460.5,441.172 460,451.5C 458.5,455.667 455.667,458.5 451.5,460C 441.172,460.5 430.839,460.666 420.5,460.5C 410.5,460.5 400.5,460.5 390.5,460.5C 380.5,460.5 370.5,460.5 360.5,460.5C 350.5,460.5 340.5,460.5 330.5,460.5C 320.5,460.5 310.5,460.5 300.5,460.5C 290.5,460.5 280.5,460.5 270.5,460.5C 265.5,460.5 260.5,460.5 255.5,460.5C 255.5,440.5 255.5,420.5 255.5,400.5C 299.835,400.667 344.168,400.5 388.5,400C 395,398.833 398.833,395 400,388.5C 400.667,299.5 400.667,210.5 400,121.5C 398.387,115.553 394.553,112.053 388.5,111C 344.168,110.5 299.835,110.333 255.5,110.5C 255.5,90.5 255.5,70.5 255.5,50.5 Z"/></g>
<g><path style="opacity:0.993" fill="#5f55ae" d="M 50.5,90.5 C 50.5,100.5 50.5,110.5 50.5,120.5C 36.496,120.667 22.496,120.5 8.5,120C 4.31481,118.312 1.31481,115.479 -0.5,111.5C -0.5,107.5 -0.5,103.5 -0.5,99.5C 1.31481,95.5212 4.31481,92.6878 8.5,91C 22.496,90.5001 36.496,90.3334 50.5,90.5 Z"/></g>
<g><path style="opacity:0.995" fill="#38316c" d="M 460.5,90.5 C 474.504,90.3334 488.504,90.5001 502.5,91C 506.685,92.6878 509.685,95.5212 511.5,99.5C 511.5,103.5 511.5,107.5 511.5,111.5C 509.685,115.479 506.685,118.312 502.5,120C 488.504,120.5 474.504,120.667 460.5,120.5C 460.5,110.5 460.5,100.5 460.5,90.5 Z"/></g>
<g><path style="opacity:1" fill="#5f55af" d="M 255.5,110.5 C 255.5,144.5 255.5,178.5 255.5,212.5C 252.733,206.385 250.233,200.052 248,193.5C 243.802,183.483 236.302,179.316 225.5,181C 221.096,182.777 217.596,185.61 215,189.5C 199.667,229.5 184.333,269.5 169,309.5C 166.693,323.516 172.527,330.349 186.5,330C 190.066,329.3 192.9,327.467 195,324.5C 198.272,316.845 201.438,309.178 204.5,301.5C 221.5,301.5 238.5,301.5 255.5,301.5C 255.5,334.5 255.5,367.5 255.5,400.5C 210.832,400.667 166.165,400.5 121.5,400C 115.902,398.069 112.402,394.236 111,388.5C 110.333,299.5 110.333,210.5 111,121.5C 112.556,116.124 116.056,112.624 121.5,111C 166.165,110.5 210.832,110.333 255.5,110.5 Z"/></g>
<g><path style="opacity:1" fill="#39326c" d="M 255.5,110.5 C 299.835,110.333 344.168,110.5 388.5,111C 394.553,112.053 398.387,115.553 400,121.5C 400.667,210.5 400.667,299.5 400,388.5C 398.833,395 395,398.833 388.5,400C 344.168,400.5 299.835,400.667 255.5,400.5C 255.5,367.5 255.5,334.5 255.5,301.5C 258.879,309.44 262.379,317.44 266,325.5C 272.197,331.104 279.031,331.937 286.5,328C 292.115,323.032 293.948,316.865 292,309.5C 279.903,277.695 267.737,246.028 255.5,214.5C 255.5,213.833 255.5,213.167 255.5,212.5C 255.5,178.5 255.5,144.5 255.5,110.5 Z"/></g>
<g><path style="opacity:0.993" fill="#5f55ae" d="M 50.5,150.5 C 50.5,160.5 50.5,170.5 50.5,180.5C 36.496,180.667 22.496,180.5 8.5,180C 4.31481,178.312 1.31481,175.479 -0.5,171.5C -0.5,167.5 -0.5,163.5 -0.5,159.5C 1.31481,155.521 4.31481,152.688 8.5,151C 22.496,150.5 36.496,150.333 50.5,150.5 Z"/></g>
<g><path style="opacity:0.995" fill="#38316c" d="M 460.5,150.5 C 474.504,150.333 488.504,150.5 502.5,151C 506.685,152.688 509.685,155.521 511.5,159.5C 511.5,163.5 511.5,167.5 511.5,171.5C 509.685,175.479 506.685,178.312 502.5,180C 488.504,180.5 474.504,180.667 460.5,180.5C 460.5,170.5 460.5,160.5 460.5,150.5 Z"/></g>
<g><path style="opacity:1" fill="#f8f7f8" d="M 255.5,212.5 C 255.5,213.167 255.5,213.833 255.5,214.5C 255.5,243.167 255.5,271.833 255.5,300.5C 238.325,300.17 221.325,300.503 204.5,301.5C 201.438,309.178 198.272,316.845 195,324.5C 192.9,327.467 190.066,329.3 186.5,330C 172.527,330.349 166.693,323.516 169,309.5C 184.333,269.5 199.667,229.5 215,189.5C 217.596,185.61 221.096,182.777 225.5,181C 236.302,179.316 243.802,183.483 248,193.5C 250.233,200.052 252.733,206.385 255.5,212.5 Z"/></g>
<g><path style="opacity:1" fill="#dcd9ef" d="M 323.5,180.5 C 333.289,179.305 339.789,183.305 343,192.5C 343.667,234.167 343.667,275.833 343,317.5C 338.963,329.603 331.129,333.103 319.5,328C 316.469,325.441 314.302,322.274 313,318.5C 312.333,276.5 312.333,234.5 313,192.5C 314.936,187.068 318.436,183.068 323.5,180.5 Z"/></g>
<g><path style="opacity:0.993" fill="#5f55ae" d="M 50.5,210.5 C 50.5,220.5 50.5,230.5 50.5,240.5C 36.496,240.667 22.496,240.5 8.5,240C 4.31481,238.312 1.31481,235.479 -0.5,231.5C -0.5,227.5 -0.5,223.5 -0.5,219.5C 1.31481,215.521 4.31481,212.688 8.5,211C 22.496,210.5 36.496,210.333 50.5,210.5 Z"/></g>
<g><path style="opacity:0.995" fill="#38316c" d="M 460.5,210.5 C 474.504,210.333 488.504,210.5 502.5,211C 506.685,212.688 509.685,215.521 511.5,219.5C 511.5,223.5 511.5,227.5 511.5,231.5C 509.685,235.479 506.685,238.312 502.5,240C 488.504,240.5 474.504,240.667 460.5,240.5C 460.5,230.5 460.5,220.5 460.5,210.5 Z"/></g>
<g><path style="opacity:1" fill="#dfdcf2" d="M 255.5,214.5 C 267.737,246.028 279.903,277.695 292,309.5C 293.948,316.865 292.115,323.032 286.5,328C 279.031,331.937 272.197,331.104 266,325.5C 262.379,317.44 258.879,309.44 255.5,301.5C 238.5,301.5 221.5,301.5 204.5,301.5C 221.325,300.503 238.325,300.17 255.5,300.5C 255.5,271.833 255.5,243.167 255.5,214.5 Z"/></g>
<g><path style="opacity:1" fill="#655bb1" d="M 229.5,233.5 C 230.497,233.47 231.164,233.97 231.5,235C 236.14,247.088 240.473,259.255 244.5,271.5C 235.167,271.5 225.833,271.5 216.5,271.5C 220.833,258.833 225.167,246.167 229.5,233.5 Z"/></g>
<g><path style="opacity:0.993" fill="#5f55ae" d="M 50.5,270.5 C 50.5,280.5 50.5,290.5 50.5,300.5C 36.496,300.667 22.496,300.5 8.5,300C 4.31481,298.312 1.31481,295.479 -0.5,291.5C -0.5,287.5 -0.5,283.5 -0.5,279.5C 1.31481,275.521 4.31481,272.688 8.5,271C 22.496,270.5 36.496,270.333 50.5,270.5 Z"/></g>
<g><path style="opacity:0.995" fill="#38316c" d="M 460.5,270.5 C 474.504,270.333 488.504,270.5 502.5,271C 506.685,272.688 509.685,275.521 511.5,279.5C 511.5,283.5 511.5,287.5 511.5,291.5C 509.685,295.479 506.685,298.312 502.5,300C 488.504,300.5 474.504,300.667 460.5,300.5C 460.5,290.5 460.5,280.5 460.5,270.5 Z"/></g>
<g><path style="opacity:0.993" fill="#5f55ae" d="M 50.5,330.5 C 50.5,340.5 50.5,350.5 50.5,360.5C 36.496,360.667 22.496,360.5 8.5,360C 4.31481,358.312 1.31481,355.479 -0.5,351.5C -0.5,347.5 -0.5,343.5 -0.5,339.5C 1.31481,335.521 4.31481,332.688 8.5,331C 22.496,330.5 36.496,330.333 50.5,330.5 Z"/></g>
<g><path style="opacity:0.995" fill="#38316c" d="M 460.5,330.5 C 474.504,330.333 488.504,330.5 502.5,331C 506.685,332.688 509.685,335.521 511.5,339.5C 511.5,343.5 511.5,347.5 511.5,351.5C 509.685,355.479 506.685,358.312 502.5,360C 488.504,360.5 474.504,360.667 460.5,360.5C 460.5,350.5 460.5,340.5 460.5,330.5 Z"/></g>
<g><path style="opacity:0.993" fill="#5f55ae" d="M 50.5,390.5 C 50.5,400.5 50.5,410.5 50.5,420.5C 36.496,420.667 22.496,420.5 8.5,420C 4.31481,418.312 1.31481,415.479 -0.5,411.5C -0.5,407.5 -0.5,403.5 -0.5,399.5C 1.31481,395.521 4.31481,392.688 8.5,391C 22.496,390.5 36.496,390.333 50.5,390.5 Z"/></g>
<g><path style="opacity:0.995" fill="#38316c" d="M 460.5,390.5 C 474.504,390.333 488.504,390.5 502.5,391C 506.685,392.688 509.685,395.521 511.5,399.5C 511.5,403.5 511.5,407.5 511.5,411.5C 509.685,415.479 506.685,418.312 502.5,420C 488.504,420.5 474.504,420.667 460.5,420.5C 460.5,410.5 460.5,400.5 460.5,390.5 Z"/></g>
<g><path style="opacity:0.992" fill="#5f55ae" d="M 90.5,460.5 C 100.5,460.5 110.5,460.5 120.5,460.5C 120.667,474.504 120.5,488.504 120,502.5C 118.312,506.685 115.479,509.685 111.5,511.5C 107.5,511.5 103.5,511.5 99.5,511.5C 95.5212,509.685 92.6878,506.685 91,502.5C 90.5001,488.504 90.3334,474.504 90.5,460.5 Z"/></g>
<g><path style="opacity:0.992" fill="#5f55ae" d="M 150.5,460.5 C 160.5,460.5 170.5,460.5 180.5,460.5C 180.667,474.504 180.5,488.504 180,502.5C 178.312,506.685 175.479,509.685 171.5,511.5C 167.5,511.5 163.5,511.5 159.5,511.5C 155.521,509.685 152.688,506.685 151,502.5C 150.5,488.504 150.333,474.504 150.5,460.5 Z"/></g>
<g><path style="opacity:0.992" fill="#5f55ae" d="M 210.5,460.5 C 220.5,460.5 230.5,460.5 240.5,460.5C 240.667,474.504 240.5,488.504 240,502.5C 238.312,506.685 235.479,509.685 231.5,511.5C 227.5,511.5 223.5,511.5 219.5,511.5C 215.521,509.685 212.688,506.685 211,502.5C 210.5,488.504 210.333,474.504 210.5,460.5 Z"/></g>
<g><path style="opacity:0.995" fill="#38316b" d="M 270.5,460.5 C 280.5,460.5 290.5,460.5 300.5,460.5C 300.667,474.504 300.5,488.504 300,502.5C 298.312,506.685 295.479,509.685 291.5,511.5C 287.5,511.5 283.5,511.5 279.5,511.5C 275.521,509.685 272.688,506.685 271,502.5C 270.5,488.504 270.333,474.504 270.5,460.5 Z"/></g>
<g><path style="opacity:0.995" fill="#38316b" d="M 330.5,460.5 C 340.5,460.5 350.5,460.5 360.5,460.5C 360.667,474.504 360.5,488.504 360,502.5C 358.312,506.685 355.479,509.685 351.5,511.5C 347.5,511.5 343.5,511.5 339.5,511.5C 335.521,509.685 332.688,506.685 331,502.5C 330.5,488.504 330.333,474.504 330.5,460.5 Z"/></g>
<g><path style="opacity:0.995" fill="#38316b" d="M 390.5,460.5 C 400.5,460.5 410.5,460.5 420.5,460.5C 420.667,474.504 420.5,488.504 420,502.5C 418.312,506.685 415.479,509.685 411.5,511.5C 407.5,511.5 403.5,511.5 399.5,511.5C 395.521,509.685 392.688,506.685 391,502.5C 390.5,488.504 390.333,474.504 390.5,460.5 Z"/></g>
</svg>
